<?xml version="1.0" encoding="UTF-8" standalone="no"?>
<!-- Created with Inkscape (http://www.inkscape.org/) -->

<svg
   width="210mm"
   height="297mm"
   viewBox="0 0 210 297"
   version="1.1"
   id="svg5"
   xml:space="preserve"
   sodipodi:docname="font.svg"
   inkscape:export-filename="font.png"
   inkscape:export-xdpi="169.8"
   inkscape:export-ydpi="169.8"
   inkscape:version="1.2.1 (9c6d41e410, 2022-07-14)"
   xmlns:inkscape="http://www.inkscape.org/namespaces/inkscape"
   xmlns:sodipodi="http://sodipodi.sourceforge.net/DTD/sodipodi-0.dtd"
   xmlns="http://www.w3.org/2000/svg"
   xmlns:svg="http://www.w3.org/2000/svg"><sodipodi:namedview
     id="namedview7"
     pagecolor="#ffffff"
     bordercolor="#000000"
     borderopacity="0.25"
     inkscape:showpageshadow="2"
     inkscape:pageopacity="0.0"
     inkscape:pagecheckerboard="0"
     inkscape:deskcolor="#d1d1d1"
     inkscape:document-units="mm"
     showgrid="false"
     inkscape:zoom="0.44785584"
     inkscape:cx="129.50596"
     inkscape:cy="765.87145"
     inkscape:window-width="1920"
     inkscape:window-height="1057"
     inkscape:window-x="-8"
     inkscape:window-y="-8"
     inkscape:window-maximized="1"
     inkscape:current-layer="layer1" /><defs
     id="defs2" /><g
     inkscape:label="Layer 1"
     inkscape:groupmode="layer"
     id="layer1"><path
       style="fill:#000000;stroke-width:0.649289"
       d="m 178.70471,289.3001 c -0.4517,0.17331 -8.7058,0.23721 -18.34245,0.14194 -17.03052,-0.16837 -17.52115,-0.20957 -17.52115,-1.4718 0,-1.2606 0.49372,-1.30392 16.88156,-1.48108 9.28483,-0.10037 17.53893,-0.0219 18.34242,0.17469 1.56929,0.38371 1.99007,2.11806 0.63962,2.63626 z m -7.79051,-12.19643 c -6.02614,6.01377 -9.05794,8.59407 -10.09773,8.59407 -1.7776,0 -18.26035,-16.5348 -18.28467,-18.34245 -0.0346,-2.56032 2.67447,-0.73749 10.37369,6.98024 l 8.09697,8.11648 8.22741,-8.20914 c 5.79794,-5.78508 8.53285,-8.09193 9.26178,-7.81222 0.56887,0.2183 1.03436,0.77539 1.03436,1.23793 0,0.46257 -3.87533,4.70835 -8.61181,9.43509 z m 7.74015,-16.353 c -1.34832,0.5174 -35.75768,-16.73606 -36.01211,-18.05711 -0.29939,-1.55462 35.16757,-19.35572 36.30272,-18.22057 0.41442,0.41441 0.59782,1.15913 0.40755,1.65491 -0.19027,0.49581 -7.24136,4.36682 -15.66916,8.60228 -8.42778,4.23546 -15.32325,7.79267 -15.32325,7.90492 0,0.11225 6.79317,3.6006 15.09598,7.75192 8.30281,4.15132 15.31066,7.87784 15.57302,8.28115 0.7098,1.09115 0.5986,1.70899 -0.37475,2.0825 z m 0.11741,-41.54018 c -0.42456,0.26238 -1.25088,-0.14674 -1.88965,-0.93561 -1.10267,-1.36175 -1.55682,-1.4019 -15.86069,-1.4019 -14.48423,0 -14.74511,0.024 -15.91975,1.46092 -1.70008,2.07964 -2.71228,0.78453 -2.46197,-3.15004 0.15607,-2.45464 0.46805,-3.2195 1.38386,-3.3935 0.76474,-0.14532 1.30741,0.25394 1.53663,1.13042 0.34647,1.3249 0.69056,1.35505 15.46123,1.35505 14.56079,0 15.11912,-0.047 15.44644,-1.29858 0.20323,-0.77694 0.88565,-1.29857 1.69895,-1.29857 1.21308,0 1.35938,0.38019 1.35938,3.53276 0,1.98307 -0.33096,3.73732 -0.75443,3.99905 z m -8.98492,-40.64561 c -9.01679,0 -9.81639,-0.0945 -9.61574,-1.13627 0.19639,-1.01972 1.1825,-1.13626 9.61574,-1.13626 8.43323,0 9.41935,0.11654 9.61574,1.13626 0.2004,1.04178 -0.599,1.13627 -9.61574,1.13627 z m 9.29081,-33.11381 c -0.49081,1.38154 -17.23604,18.18013 -18.12238,18.18013 -0.40343,0 -4.71377,-4.01747 -9.57857,-8.92774 l -8.84506,-8.92772 -0.008,-3.25546 -0.008,-3.25547 8.61178,-8.59409 c 4.73651,-4.72673 9.05962,-8.59408 9.60697,-8.59408 0.54735,0 4.99921,4.0409 9.89299,8.97976 8.0448,8.11892 8.89288,9.19262 8.84652,11.20028 -0.0283,1.22123 -0.20677,2.65873 -0.39727,3.19439 z m -2.37263,0.6493 c -0.12308,0 -0.78063,0.65741 -1.46091,1.46092 l -1.23688,1.4609 1.46087,-1.23691 c 1.3729,-1.16236 1.75649,-1.68491 1.23692,-1.68491 z m -8.23227,-12.67129 -7.80696,-7.78135 -7.77599,7.84419 c -5.33944,5.38621 -7.776,8.30514 -7.776,9.31535 0,1.00695 2.45069,3.96145 7.76557,9.36202 l 7.76556,7.8908 7.81739,-7.78132 c 5.88206,-5.85492 7.81741,-8.18822 7.81741,-9.42483 0,-1.23595 -1.93609,-3.57325 -7.80698,-9.42486 z m -8.64931,-9.40457 c -0.1233,0 -0.78058,0.6574 -1.46089,1.46091 l -1.2369,1.46091 1.46091,-1.23689 c 1.37291,-1.16237 1.7565,-1.68493 1.23688,-1.68493 z m 18.95846,-19.57204 c -0.85996,2.98806 -3.52477,6.8709 -6.02345,8.77675 -4.37108,3.33398 -6.54708,3.85261 -17.25602,4.11281 -10.19246,0.24763 -12.21062,-0.10705 -11.47755,-2.0174 0.34037,-0.887 1.78074,-1.03948 9.82085,-1.03948 12.93744,0 17.40704,-1.85441 20.77903,-8.6211 3.02177,-6.063897 1.86843,-13.184049 -2.8845,-17.807347 -3.77913,-3.676108 -5.38091,-4.088148 -15.89168,-4.088148 -9.40277,0 -12.03337,-0.485246 -12.03337,-2.219666 0,-1.313489 2.16285,-1.658503 10.38866,-1.657082 12.03695,0.0018 17.55374,2.05408 22.0597,8.205236 3.06312,4.18152 4.0944,10.87918 2.51833,16.355427 z m -0.28277,-28.869517 c -0.56486,0.216672 -8.39789,0.39412 -17.40673,0.39412 -12.65872,0 -16.64978,-0.197578 -17.56855,-0.869328 -0.81222,-0.593907 -1.00494,-1.159553 -0.60835,-1.785552 1.39321,-2.199087 18.26547,-18.122426 19.20238,-18.122426 2.72951,0 1.3221,2.18727 -6.1797,9.603662 l -7.90364,7.813748 15.1932,0.078 c 8.35626,0.0429 15.44187,0.232008 15.74582,0.419658 0.91038,0.562668 0.62526,2.045995 -0.47443,2.467982 z M 157.85446,60.394091 c -0.13464,0 -0.64613,0.511296 -1.13627,1.13626 -0.80763,1.02979 -0.78465,1.05278 0.24516,0.245162 1.08157,-0.848216 1.4255,-1.381394 0.89112,-1.381394 z m 21.26131,-7.597516 c -0.25043,0.250442 -8.44159,0.455326 -18.20255,0.455326 h -17.74727 v -1.633506 -1.633486 l 18.00913,0.17259 c 15.65438,0.149948 18.03446,0.304076 18.20259,1.17818 0.10656,0.553096 -0.0119,1.210482 -0.2619,1.460896 z m -26.3345,-1.328814 c -4.75277,0.111282 -1.04471,0.202288 8.24015,0.202766 9.28482,3.76e-4 13.17348,-0.09056 8.64141,-0.20206 -4.53208,-0.111522 -12.12876,-0.11176 -16.88156,-6.6e-4 z m 26.29638,-24.187454 c -0.46815,1.317806 -17.21528,18.180112 -18.05594,18.180112 -0.36683,0 -4.68055,-4.02126 -9.58604,-8.936148 l -8.91903,-8.936139 v -3.159339 c 0,-3.094594 0.11553,-3.277322 5.63647,-8.919336 5.39942,-5.517751 7.99863,-7.034014 7.99863,-4.665977 0,0.601698 -2.48354,3.631971 -5.51898,6.733926 -3.03544,3.101955 -5.51896,6.19325 -5.51896,6.869537 0,0.707959 3.37847,4.599941 7.96358,9.174068 l 7.96355,7.944428 7.61942,-7.639298 c 5.66195,-5.676755 7.61938,-8.056773 7.61938,-9.264359 0,-1.199354 -1.78607,-3.405041 -6.81754,-8.419424 l -6.81755,-6.794325 v 8.916128 c 0,8.483288 -0.0631,8.916146 -1.29859,8.916146 -1.24911,0 -1.29857,-0.432858 -1.29857,-11.362586 0,-10.285047 0.10516,-11.362577 1.1097,-11.362577 0.61031,0 4.99303,3.883357 9.73933,8.629634 7.84054,7.840551 8.62498,8.835067 8.57842,10.875617 -0.0283,1.235288 -0.20677,2.684232 -0.39728,3.219912 z M 164.13267,8.450876 c -0.48755,0 0.028,0.582953 2.89466,3.273592 l 3.08414,2.894661 -2.89466,-3.084127 c -1.59209,-1.69625 -2.97994,-3.084126 -3.08414,-3.084126 z m -10.17405,3.246431 c -0.13462,0 -0.64613,0.511324 -1.13623,1.136288 -0.80765,1.029817 -0.78468,1.05278 0.24516,0.245162 1.08155,-0.848199 1.42551,-1.381423 0.8911,-1.381423 z m 4.30324,167.676763 c -3.65441,3.24981 -15.55677,11.52732 -16.57536,11.52732 -2.76048,0 -0.54046,-2.7268 6.52199,-8.01077 l 7.31515,-5.47301 -7.30728,-5.43756 c -7.07999,-5.26843 -8.78789,-7.30275 -6.77844,-8.07386 1.25657,-0.48218 17.9602,11.99224 17.9602,13.41284 0,0.57452 -0.51133,1.49928 -1.13626,2.05504 z"
       id="path181" /></g></svg>
